<svg width="70" height="70" fill="none" xmlns="http://www.w3.org/2000/svg"> <rect width="70" height="70" rx="21" fill="#00658B" /><path fill="#ffffff" style="stroke-width:2.69965" d="m 35.409278,10 8.554507,36.704021 7.143741,-30.8241 A 24.999976,25.005146 0 0 0 35.409278,10 Z m -15.769565,5.340307 a 24.999976,25.005146 0 0 0 -9.218034,15.328319 c 0.01535,0.03582 0.03931,0.0889 0.05374,0.123005 l 0.344167,0.649189 c -0.193318,0 -0.37575,-0.0096 -0.563273,-0.01438 A 24.999976,25.005146 0 0 0 10,34.994834 24.999976,25.005146 0 0 0 12.394684,45.629965 Z m 6.463683,7.738589 -7.486875,30.801359 A 24.999976,25.005146 0 0 0 35.000002,60 24.999976,25.005146 0 0 0 35.231509,59.98353 Z m 31.292116,0.818723 -7.470337,31.077366 A 24.999976,25.005146 0 0 0 60,34.994832 24.999976,25.005146 0 0 0 57.395512,23.897619 Z"/></svg>
