<svg width="70" height="70" fill="none" xmlns="http://www.w3.org/2000/svg"><rect width="70" height="70" rx="35" fill="#FFFFFF" /><path fill="#00658B" style="stroke-width:3.23958" d="m 35.491134,5 10.265408,44.044825 8.572489,-36.98892 A 29.999971,30.006175 0 0 0 35.491134,5 Z M 16.567656,11.408368 A 29.999971,30.006175 0 0 0 5.5060148,29.802351 c 0.01842,0.04298 0.047172,0.10668 0.064488,0.147606 l 0.4130004,0.779027 c -0.2319816,0 -0.4509,-0.01152 -0.6759276,-0.01726 A 29.999971,30.006175 0 0 0 5,34.993801 29.999971,30.006175 0 0 0 7.8736208,47.755958 Z m 7.756419,9.286307 -8.98425,36.961631 A 29.999971,30.006175 0 0 0 35.000002,65 29.999971,30.006175 0 0 0 35.277811,64.980236 Z M 61.874614,21.677143 52.91021,58.969982 A 29.999971,30.006175 0 0 0 65,34.993798 29.999971,30.006175 0 0 0 61.874614,21.677143 Z" /></svg>
