<?xml version="1.0" encoding="UTF-8" standalone="no"?>
<!-- Created with Inkscape (http://www.inkscape.org/) -->

<svg
   width="25mm"
   height="25mm"
   viewBox="0 0 25 25"
   version="1.1"
   id="svg1"
   xmlns:xlink="http://www.w3.org/1999/xlink"
   xmlns="http://www.w3.org/2000/svg"
   xmlns:svg="http://www.w3.org/2000/svg">
  <defs
     id="defs1">
    <linearGradient
       id="linearGradient23">
      <stop
         style="stop-color:#057dbb;stop-opacity:1;"
         offset="0"
         id="stop23" />
      <stop
         style="stop-color:#7dd3fc;stop-opacity:1;"
         offset="1"
         id="stop24" />
    </linearGradient>
    <linearGradient
       xlink:href="#linearGradient23"
       id="linearGradient24"
       x1="7.1130586"
       y1="21.28672"
       x2="21.234262"
       y2="-7.5839305"
       gradientUnits="userSpaceOnUse" />
  </defs>
  <g
     id="layer1">
    <path
       id="path23"
       style="fill:url(#linearGradient24);fill-opacity:1;stroke-width:0.268519"
       d="M 12.704651,0.00516764 16.981909,18.353402 20.553784,2.9445231 A 12.5,12.5 0 0 0 12.704651,0.00516764 Z M 4.8198608,2.6747721 A 12.5,12.5 0 0 0 0.21083984,10.337354 c 0.00767,0.01791 0.0196563,0.04444 0.0268718,0.06149 l 0.17208252,0.324528 c -0.0966588,0 -0.18787504,-0.0048 -0.28163656,-0.0072 A 12.5,12.5 0 0 0 0,12.500012 12.5,12.5 0 0 0 1.1973429,17.816484 Z M 8.0517049,6.5432699 4.3082642,21.94078 a 12.5,12.5 0 0 0 8.1917478,3.059244 12.5,12.5 0 0 0 0.115755,-0.0083 z M 23.697778,6.9525472 19.962606,22.488033 a 12.5,12.5 0 0 0 5.037418,-9.988021 12.5,12.5 0 0 0 -1.302246,-5.5474648 z" />
  </g>
</svg>
